<svg xmlns="http://www.w3.org/2000/svg" width="410" height="410" fill="none">
    <path fill="#B03C37"
        d="M204.664 410c113.033 0 204.665-91.782 204.665-205S317.697 0 204.664 0C91.631 0 0 91.782 0 205s91.631 205 204.664 205Z" />
    <path fill="#FFECDD"
        d="M366.915 173.561c-.161-.806-.322-1.935-.805-2.902a3.208 3.208 0 0 0-2.978-1.935c-1.288 0-2.414.726-2.897 1.854 0 .081-.081.161-.081.242-.644 1.854-.724 4.917-1.368 8.868-.322 2.095-2.817 21.12-9.416 38.291-19.316 52.721-51.508 61.105-65.995 58.848-22.052-2.902-34.929-18.058-41.85-37.082-7.888-19.267-7.566-34.825-18.109-49.578-4.507-5.804-10.14-9.351-18.993-9.432-32.837 0-31.71 57.558-79.838 55.463-37.504-3.386-53.36-46.031-50.784-84.564.403-16.364 7.726-43.451 10.946-51.19.16-.403.241-.806.241-1.209a3.231 3.231 0 0 0-3.22-3.224 3.22 3.22 0 0 0-2.333.967C54.485 126 39.355 163.726 39.355 205c0 91.416 73.963 165.5 165.229 165.5 91.266 0 165.228-74.084 165.228-165.5.081-10.721-.885-21.201-2.897-31.439Z" />
</svg>