<svg xmlns="http://www.w3.org/2000/svg" width="421" height="222" fill="none">
    <path fill="#fff"
        d="M.328.882h43.54v20.234H24.474V41.35H43.87v20.234H24.473v40.468H.328V.882Zm155.973 76.502c0-13.543.161-36.437.322-49.98h-1.287c-1.932 24.91-5.554 67.715-5.876 74.567h-18.43c-.805-14.269-4.104-55.623-6.036-75.051h-1.288c.161 12.011.805 32.165.805 49.658v25.393h-23.098V.881h34.366c1.126 9.433 3.541 32.327 4.265 44.5h.966c1.449-14.27 2.092-23.862 4.265-44.5h35.895v101.171h-24.788V77.384h-.081Zm57.706 4.434-1.207 20.234h-24.547L199.037.882h38.39l10.543 101.17h-24.869l-1.207-20.234h-7.887ZM254.328.882h24.144v80.936h19.396v20.798l-43.54-.645V.881Zm94.083 60.702h-19.396v20.234h19.396v20.234h-43.54V.882h43.54v20.234h-19.396V41.35h19.396v20.234Zm-50.543 117.615h-19.396v20.234h19.396v20.234h-43.54v-101.17h43.54v20.234h-19.396v20.234h19.396v20.234Zm-273.556-2.257v42.644H.328V118.497h29.86c19.717 0 25.914 9.996 25.914 25.958v3.627c0 11.367-3.782 17.171-9.738 20.234 7.243 3.305 9.255 8.948 9.255 23.7 0 12.173-.16 23.701.322 27.651h-23.34c-1.046-1.854-1.368-8.787-1.368-31.923 0-9.996-.885-10.802-5.794-10.802h-1.127Zm94.727-32.004v48.287c0 20.476-11.187 27.973-28.813 27.973-16.981 0-26.96-8.061-26.96-27.973v-49.496c0-18.702 11.508-26.764 27.604-26.764 16.016 0 28.169 8.223 28.169 27.973Zm62.131 37.163v8.061c0 15.639-3.3 30.956-28.168 30.956-13.521 0-26.801-4.676-26.801-28.86v-47.239c0-21.605 11.831-28.134 27.444-28.134 24.708 0 27.606 16.525 27.606 27.973v9.431h-24.386v-12.011c0-4.111-.322-6.53-3.22-6.53-2.736 0-3.299 1.935-3.299 6.53v53.044c0 4.998.644 6.852 3.058 6.852 2.736 0 3.461-1.854 3.461-7.256v-12.736h24.305v-.081Zm7.002-63.604h22.857v42.645h.644c2.092-8.384 9.416-42.645 9.416-42.645h26.076l-14.728 39.339 14.889 61.831h-25.754l-5.795-39.501-4.667 11.85v27.651h-22.857v-101.17h-.081Zm140.682 58.445v42.644h-23.983V118.497h29.858c19.718 0 25.915 9.996 25.915 25.958v3.627c0 11.367-3.782 17.171-9.738 20.234 7.243 3.305 9.255 8.948 9.255 23.7 0 12.173-.161 23.701.322 27.651h-23.339c-1.047-1.854-1.369-8.787-1.369-31.923 0-9.996-.885-10.802-5.794-10.802h-1.127Zm60.844 12.333v5.402c0 6.046 1.046 7.577 3.299 7.577 2.093 0 2.898-2.096 2.898-5.885 0-7.577-.885-9.834-10.141-18.541-12.314-11.527-18.028-17.493-18.028-32.164 0-16.284 6.036-28.699 25.593-28.699 21.569 0 25.352 13.221 25.352 26.845v4.998h-21.247v-6.449c0-5.16-.885-6.53-3.219-6.53-1.851 0-2.898 1.531-2.898 6.046 0 5.32.886 7.416 8.531 14.268 13.763 12.334 20.282 18.703 20.282 34.745 0 18.541-5.634 30.23-26.961 30.23-19.075 0-26.398-10.48-26.398-28.537v-3.306h22.937ZM94.412 61.584H75.016v20.234h19.396v20.234h-43.54V.882h43.54v20.234H75.016V41.35h19.396v20.234Z" />
</svg>