<svg xmlns="http://www.w3.org/2000/svg" viewBox="0 0 737.02 768">
    <path fill="#111"
        d="M735.75 756.83 437.83 324.78 706.54 11.76c3.97-4.62.68-11.76-5.4-11.76h-49.31L408.96 282.92 219.59 8.28A19.146 19.146 0 0 0 203.82 0H6.12C.38 0-3.01 6.44.25 11.17l285.96 414.74L2.65 756.24c-3.97 4.62-.68 11.76 5.4 11.76h49.31l257.72-300.22 201.3 291.94c3.58 5.19 9.47 8.28 15.77 8.28h197.73c5.74 0 9.12-6.44 5.86-11.17Zm-88.63-38.74h-85.87c-6.87 0-13.31-3.36-17.23-9.01l-195.1-280.73-29.01-41.71L88.36 53.48c-1.05-1.51.03-3.58 1.87-3.58h85.89c6.87 0 13.31 3.36 17.23 9.01l182.49 262.58 28.99 41.73 244.16 351.3c1.05 1.51-.03 3.58-1.87 3.58Z" />
</svg>