<?xml version="1.0" encoding="utf-8"?>
<!-- Generator: Adobe Illustrator 25.0.0, SVG Export Plug-In . SVG Version: 6.00 Build 0)  -->
<svg version="1.1" baseProfile="tiny" xmlns="http://www.w3.org/2000/svg" xmlns:xlink="http://www.w3.org/1999/xlink" x="0px"
	 y="0px" viewBox="0 0 1080 1080" overflow="visible" xml:space="preserve">
<g id="Layer_3" display="none">
</g>
<g id="Layer_2" display="none">
</g>
<g id="_x5F_">
	<g>
		<circle fill="#B23C37" cx="540" cy="540" r="540"/>
		<path fill="#FFEEDF" d="M968.1,457.2c-0.4-2.1-0.9-5-2.1-7.6c0,0,0-0.1,0-0.1c-1.3-3-4.3-5.2-7.8-5.2c-3.4,0-6.3,2-7.7,4.9
			c-0.1,0.2-0.2,0.5-0.3,0.7c-1.7,4.9-1.9,13-3.6,23.4c-0.8,5.5-7.3,55.6-24.7,100.8c-50.9,138.9-135.8,161-174.2,155.1
			c-58.1-7.7-92.2-47.7-110.3-97.6c-20.8-50.9-20-91.6-47.7-130.6c-11.8-15.2-26.7-24.6-50.2-24.9c-86.5,0.1-83.8,151.5-210.7,146.1
			c-99-9-140.8-121.2-134-222.6c1.2-43.1,20.4-114.5,28.9-134.8c0,0,0-0.1,0-0.1c0.4-1,0.7-2.1,0.7-3.3c0-4.7-3.8-8.5-8.5-8.5
			c-2.3,0-4.5,0.9-6.1,2.6C143.9,331.9,104,431.3,104,540c0,240.8,195.2,436,436,436s436-195.2,436-436
			C976,511.7,973.2,484,968.1,457.2z"/>
	</g>
</g>
</svg>
