<svg width="421" height="222" viewBox="0 0 421 222" fill="none" xmlns="http://www.w3.org/2000/svg">
<path d="M0.3284 0.881836H43.8689V21.1158H24.4729V41.3498H43.8689V61.5838H24.4729V102.052H0.3284V0.881836Z" fill="#FFECDD"/>
<path d="M156.301 77.384C156.301 63.841 156.462 40.9467 156.623 27.4037H155.336C153.404 52.3132 149.782 95.119 149.46 101.971H131.03C130.225 87.7025 126.926 46.3478 124.994 26.92H123.706C123.867 38.9314 124.511 59.0848 124.511 76.5779V101.971H101.413V0.881836H135.779C136.905 10.3136 139.32 33.2078 140.044 45.3805H141.01C142.459 31.1119 143.102 21.5189 145.275 0.881836H181.17V102.052H156.382V77.384H156.301Z" fill="#FFECDD"/>
<path d="M214.007 81.8177L212.8 102.052H188.253L199.037 0.881836H237.427L247.97 102.052H223.101L221.894 81.8177H214.007Z" fill="#FFECDD"/>
<path d="M254.328 0.881836H278.472V81.8178H297.868V102.616L254.328 101.971V0.881836Z" fill="#FFECDD"/>
<path d="M348.411 61.5838H329.015V81.8177H348.411V102.052H304.871V0.881836H348.411V21.1158H329.015V41.3498H348.411V61.5838Z" fill="#FFECDD"/>
<path d="M297.868 179.199H278.472V199.433H297.868V219.667H254.328V118.497H297.868V138.731H278.472V158.965H297.868V179.199Z" fill="#FFECDD"/>
<path d="M24.3119 176.942V219.586H0.32843V118.497H30.1871C49.9051 118.497 56.1021 128.493 56.1021 144.455V148.082C56.1021 159.449 52.3195 165.253 46.3639 168.316C53.6072 171.621 55.6192 177.264 55.6192 192.016C55.6192 204.189 55.4583 215.717 55.9412 219.667H32.6015C31.5553 217.813 31.2333 210.88 31.2333 187.744C31.2333 177.748 30.348 176.942 25.4387 176.942H24.3119Z" fill="#FFECDD"/>
<path d="M119.039 144.938V193.225C119.039 213.701 107.852 221.198 90.2265 221.198C73.2449 221.198 63.2652 213.137 63.2652 193.225V143.729C63.2652 125.027 74.774 116.965 90.8703 116.965C106.886 116.965 119.039 125.188 119.039 144.938Z" fill="#FFECDD"/>
<path d="M181.17 182.101V190.162C181.17 205.801 177.87 221.118 153.002 221.118C139.481 221.118 126.201 216.442 126.201 192.258V145.019C126.201 123.414 138.032 116.885 153.645 116.885C178.353 116.885 181.251 133.41 181.251 144.858V154.289H156.865V142.278C156.865 138.167 156.543 135.748 153.645 135.748C150.909 135.748 150.346 137.683 150.346 142.278V195.322C150.346 200.32 150.99 202.174 153.404 202.174C156.14 202.174 156.865 200.32 156.865 194.918V182.182H181.17V182.101Z" fill="#FFECDD"/>
<path d="M188.172 118.497H211.029V161.142H211.673C213.765 152.758 221.089 118.497 221.089 118.497H247.165L232.437 157.836L247.326 219.667H221.572L215.777 180.166L211.11 192.016V219.667H188.253V118.497H188.172Z" fill="#FFECDD"/>
<path d="M328.854 176.942V219.586H304.871V118.497H334.729C354.447 118.497 360.644 128.493 360.644 144.455V148.082C360.644 159.449 356.862 165.253 350.906 168.316C358.149 171.621 360.161 177.264 360.161 192.016C360.161 204.189 360 215.717 360.483 219.667H337.144C336.097 217.813 335.775 210.88 335.775 187.744C335.775 177.748 334.89 176.942 329.981 176.942H328.854Z" fill="#FFECDD"/>
<path d="M389.698 189.275V194.677C389.698 200.723 390.744 202.254 392.997 202.254C395.09 202.254 395.895 200.158 395.895 196.369C395.895 188.792 395.01 186.535 385.754 177.828C373.44 166.301 367.726 160.335 367.726 145.664C367.726 129.38 373.762 116.965 393.319 116.965C414.888 116.965 418.671 130.186 418.671 143.81V148.808H397.424V142.359C397.424 137.199 396.539 135.829 394.205 135.829C392.354 135.829 391.307 137.36 391.307 141.875C391.307 147.195 392.193 149.291 399.838 156.143C413.601 168.477 420.12 174.846 420.12 190.888C420.12 209.429 414.486 221.118 393.159 221.118C374.084 221.118 366.761 210.638 366.761 192.581V189.275H389.698Z" fill="#FFECDD"/>
<path d="M94.4116 61.5838H75.0156V81.8177H94.4116V102.052H50.8711V0.881836H94.4116V21.1158H75.0156V41.3498H94.4116V61.5838Z" fill="#FFECDD"/>
</svg>
