<svg
    width='200'
    id="_"
    xmlns="http://www.w3.org/2000/svg"
    viewBox="0 0 566.2 260.1"
>
    <defs>
    </defs>
    <circle className="cls-1" cx="132.1" cy="130.1" r="127.1" />
    <path
        className="cls-2"
        d="M232.9,110.6a7,7,0,0,0-.5-1.8h0a2,2,0,0,0-1.9-1.3,2.1,2.1,0,0,0-1.8,1.2v.2a44.3,44.3,0,0,0-.9,5.5,115.9,115.9,0,0,1-5.8,23.7c-12,32.7-32,37.9-41,36.5-13.7-1.8-21.7-11.2-26-23s-4.7-21.5-11.2-30.7A14.2,14.2,0,0,0,132,115c-20.4,0-19.7,35.7-49.6,34.4C59.1,147.3,49.2,120.9,50.8,97c.3-10.2,4.8-27,6.8-31.7h0a2.4,2.4,0,0,0,.2-.8,2,2,0,0,0-2-2,1.7,1.7,0,0,0-1.4.6,102.6,102.6,0,1,0,180.3,67A104,104,0,0,0,232.9,110.6Z"
    />
    <path
        className="cls-2"
        d="M522.2,172.3h-12v12.5h12v12.6h-27V134.7h27v12.5h-12v12.6h12Z"
    />
    <path
        className="cls-2"
        d="M471,170.9v26.5H456.2V134.7h18.5c12.3,0,16.1,6.2,16.1,16.1V153c0,7.1-2.3,10.7-6,12.6,4.5,2,5.7,5.5,5.7,14.7,0,7.5-.1,14.6.2,17.1H476.2c-.6-1.1-.8-5.5-.8-19.8,0-6.2-.6-6.7-3.6-6.7Z"
    />
    <path
        className="cls-2"
        d="M350.1,99.4h-12v12.5h12v12.6h-27V61.8h27V74.3h-12V86.9h12Z"
    />
    <path
        className="cls-2"
        d="M318.7,124.5H308a34.6,34.6,0,0,1-.6-4.9c-2.3,5.1-7,5.8-10.6,5.8-10.5,0-12.7-8.2-12.7-17.4V77.4c0-8.5,4-16.6,17.1-16.6,15.6,0,17.5,11,17.5,17.3v4H303.6V77.3c0-3.1-.2-4.7-2.3-4.7S299,74,299,77.5v32.4c0,3.5,1.4,3.8,2.3,3.8s2.3-1,2.3-4.6V100h-2.4V87.7h17.5Z"
    />
    <path
        className="cls-2"
        d="M361.9,74.1h-7.4V61.8h29.7V74.1h-7.4v50.4H361.9Z"
    />
    <path
        className="cls-2"
        d="M284.1,134.7h27v12.5H299v12.6h12.1v12.5H299v25.1H284.1Z"
    />
    <path
        className="cls-2"
        d="M362.8,184.8l-.7,12.6H346.8l6.7-62.7h23.8l6.6,62.7H368.5l-.8-12.6Z"
    />
    <path
        className="cls-2"
        d="M342.5,172.3H330.4v12.5h12.1v12.6H315.4V134.7h27.1v12.5H330.4v12.6h12.1Z"
    />
    <path
        className="cls-2"
        d="M390.4,147H383V134.7h29.8V147h-7.5v50.4H390.4Z"
    />
    <path
        className="cls-2"
        d="M432.3,134.7v48.4c0,2.3.6,3.5,2,3.5s2.2-1.2,2.2-3.5V134.7h15.3v46.5c0,13.3-6.2,17-17.7,17s-17-4.9-17-17.3V134.7Z"
    />
    <path
        className="cls-2"
        d="M526.6,134.7H543c12.3,0,18.2,4.8,18.2,19.4v23c0,13.1-3.4,20.3-16.1,20.3H526.6Z"
    />
</svg>