<svg width="410" height="410" viewBox="0 0 410 410" fill="none" xmlns="http://www.w3.org/2000/svg">
<path d="M204.664 410C317.697 410 409.329 318.218 409.329 205C409.329 91.7816 317.697 0 204.664 0C91.6314 0 0 91.7816 0 205C0 318.218 91.6314 410 204.664 410Z" fill="#B03C37"/>
<path d="M366.915 173.561C366.754 172.755 366.593 171.626 366.11 170.659C365.627 169.53 364.5 168.724 363.132 168.724C361.844 168.724 360.718 169.45 360.235 170.578C360.235 170.659 360.154 170.739 360.154 170.82C359.51 172.674 359.43 175.737 358.786 179.688C358.464 181.783 355.969 200.808 349.37 217.979C330.054 270.7 297.862 279.084 283.375 276.827C261.323 273.925 248.446 258.769 241.525 239.745C233.637 220.478 233.959 204.92 223.416 190.167C218.909 184.363 213.276 180.816 204.423 180.735C171.586 180.735 172.713 238.293 124.585 236.198C87.0806 232.812 71.2257 190.167 73.8011 151.634C74.2035 135.27 81.5273 108.183 84.7466 100.444C84.9076 100.041 84.988 99.6383 84.988 99.2353C84.988 97.4618 83.5394 96.0107 81.7688 96.0107C80.8835 96.0107 80.0787 96.3332 79.4348 96.9781C54.4856 125.999 39.355 163.726 39.355 205C39.355 296.416 113.318 370.5 204.584 370.5C295.85 370.5 369.812 296.416 369.812 205C369.893 194.279 368.927 183.799 366.915 173.561Z" fill="#FFECDD"/>
</svg>
