<svg width="1200" height="627" viewBox="0 0 1200 627" fill="none" xmlns="http://www.w3.org/2000/svg">
<g clip-path="url(#clip0)">
<rect width="1200" height="627" fill="#111111"/>
<path d="M232.952 239.696V266.48H243.416C246.488 266.416 248.984 265.424 250.904 263.504C252.824 261.52 253.784 259.024 253.784 256.016V255.536H254.744V282.224H253.784V281.744C253.784 278.736 252.824 276.272 250.904 274.352C248.984 272.368 246.52 271.344 243.512 271.28H232.952V294.992C232.952 296.656 233.56 298.096 234.776 299.312C235.992 300.464 237.432 301.04 239.096 301.04H240.344V302H205.88V301.04H207.128C208.792 301.04 210.2 300.464 211.352 299.312C212.568 298.096 213.208 296.656 213.272 294.992V241.808C213.208 240.144 212.568 238.736 211.352 237.584C210.2 236.368 208.792 235.76 207.128 235.76H205.88V234.8H248.408C251.16 234.8 253.592 234.576 255.704 234.128C257.816 233.68 259.192 233.328 259.832 233.072V252.848H258.872V252.08C258.872 246.96 257.016 243.376 253.304 241.328C251.512 240.304 249.368 239.76 246.872 239.696H232.952ZM265.579 302V301.04H266.635C267.979 301.04 269.003 300.688 269.707 299.984C270.987 298.768 271.627 297.456 271.627 296.048V250.448C271.627 248.976 271.115 247.76 270.091 246.8C269.131 245.84 267.979 245.36 266.635 245.36H265.579V244.4H303.019C304.619 244.4 306.411 244.24 308.395 243.92C310.379 243.6 311.755 243.28 312.523 242.96V261.104H311.562V260.624C311.562 256.912 310.571 254.032 308.587 251.984C306.667 249.936 303.915 248.88 300.331 248.816H290.443V271.376H297.835C300.651 271.312 302.923 270.384 304.651 268.592C306.443 266.736 307.339 264.368 307.339 261.488V261.296H308.299V286.064H307.339V285.68C307.339 282.864 306.443 280.528 304.651 278.672C302.923 276.816 300.651 275.888 297.835 275.888H290.443V297.584H299.659C303.499 297.584 306.987 296.176 310.123 293.36C313.259 290.544 315.403 286.704 316.555 281.84H317.419L314.731 302H265.579ZM371.581 302V301.04H372.925C374.077 301.04 374.909 300.656 375.421 299.888C375.933 299.056 376.157 298.224 376.093 297.392L372.925 275.888L359.677 294.416C358.717 295.76 357.885 297.328 357.181 299.12C356.477 300.912 356.125 302.128 356.125 302.768C356.125 303.472 356.125 303.92 356.125 304.112H355.357L333.757 277.232L331.165 297.392C331.101 298.032 331.261 298.672 331.645 299.312C332.285 300.464 333.181 301.04 334.333 301.04H335.677V302H317.053V301.04H318.301C319.901 301.04 321.277 300.624 322.429 299.792C323.581 298.896 324.253 297.648 324.445 296.048L331.933 243.248H332.701L361.309 279.248L386.941 243.248H387.805L395.485 296.528C395.869 297.936 396.573 299.056 397.597 299.888C398.685 300.656 399.933 301.04 401.341 301.04H402.685V302H371.581ZM464.943 301.04H465.711V302H431.919V301.04H432.687C433.967 301.04 434.895 300.72 435.471 300.08C436.111 299.376 436.431 298.736 436.431 298.16C436.431 297.52 436.271 296.848 435.951 296.144L433.167 289.808H415.407L412.527 296.432C412.271 297.008 412.143 297.584 412.143 298.16C412.143 298.736 412.431 299.376 413.007 300.08C413.647 300.72 414.607 301.04 415.887 301.04H416.559V302H396.783V301.04H397.551C398.895 301.04 400.239 300.656 401.583 299.888C402.991 299.12 404.079 297.936 404.847 296.336L424.623 253.712C427.759 246.864 429.423 242.608 429.615 240.944H430.383L457.455 296.144C459.119 299.408 461.615 301.04 464.943 301.04ZM417.231 285.488H431.247L424.239 269.36L417.231 285.488ZM512.543 302H463.391V301.04H464.447C465.791 301.04 466.943 300.56 467.903 299.6C468.927 298.64 469.439 297.456 469.439 296.048V250.352C469.439 248.944 468.927 247.76 467.903 246.8C466.943 245.84 465.791 245.36 464.447 245.36H463.391V244.4H494.399V245.36H493.343C491.103 245.36 489.567 246.352 488.735 248.336C488.415 248.976 488.255 249.648 488.255 250.352V297.584H497.471C501.311 297.584 504.767 296.176 507.839 293.36C510.975 290.544 513.151 286.704 514.367 281.84H515.327L512.543 302ZM516.829 302V301.04H517.885C519.229 301.04 520.253 300.688 520.957 299.984C522.237 298.768 522.877 297.456 522.877 296.048V250.448C522.877 248.976 522.365 247.76 521.341 246.8C520.381 245.84 519.229 245.36 517.885 245.36H516.829V244.4H554.269C555.869 244.4 557.661 244.24 559.645 243.92C561.629 243.6 563.005 243.28 563.773 242.96V261.104H562.812V260.624C562.812 256.912 561.821 254.032 559.837 251.984C557.917 249.936 555.165 248.88 551.581 248.816H541.693V271.376H549.085C551.901 271.312 554.173 270.384 555.901 268.592C557.693 266.736 558.589 264.368 558.589 261.488V261.296H559.549V286.064H558.589V285.68C558.589 282.864 557.693 280.528 555.901 278.672C554.173 276.816 551.901 275.888 549.085 275.888H541.693V297.584H550.909C554.749 297.584 558.237 296.176 561.373 293.36C564.509 290.544 566.653 286.704 567.805 281.84H568.669L565.981 302H516.829ZM658.831 245.36C659.855 247.6 660.367 249.936 660.367 252.368C660.367 254.736 660.111 256.848 659.599 258.704C659.087 260.496 658.287 262.288 657.199 264.08C654.831 267.92 650.767 270.288 645.007 271.184C647.503 271.888 649.743 273.136 651.727 274.928C653.839 276.72 655.823 279.216 657.679 282.416C662.479 290.608 666.159 295.888 668.719 298.256C670.639 300.048 673.071 300.976 676.015 301.04V302H664.015C655.695 302 649.743 301.072 646.159 299.216C641.039 296.592 637.391 292.08 635.215 285.68C634.639 283.824 634.127 281.872 633.679 279.824C633.295 277.776 632.943 276.304 632.623 275.408C632.367 274.448 632.047 273.584 631.663 272.816C631.279 271.984 630.863 271.344 630.415 270.896C629.647 270.128 628.751 269.552 627.727 269.168V268.208H629.263C632.975 268.208 635.759 266.512 637.615 263.12C638.575 261.328 639.151 259.408 639.343 257.36C639.599 255.248 639.727 253.936 639.727 253.424C639.727 252.912 639.727 252.592 639.727 252.464C639.279 244.016 635.631 239.792 628.783 239.792H624.559V294.992C624.559 296.656 625.167 298.096 626.383 299.312C627.599 300.464 629.039 301.04 630.703 301.04H631.855V302H597.391V301.04H598.639C600.303 301.04 601.711 300.464 602.863 299.312C604.079 298.16 604.719 296.752 604.783 295.088V241.808C604.719 239.44 603.695 237.68 601.711 236.528C600.751 236.016 599.727 235.76 598.639 235.76H597.391V234.8H634.927C647.471 234.8 655.439 238.32 658.831 245.36ZM671.338 273.2C671.338 263.728 674.41 256.368 680.554 251.12C686.762 245.872 695.338 243.248 706.282 243.248C717.29 243.248 725.866 245.872 732.01 251.12C738.218 256.368 741.322 263.728 741.322 273.2C741.322 282.672 738.218 290.032 732.01 295.28C725.866 300.528 717.29 303.152 706.282 303.152C695.338 303.152 686.762 300.528 680.554 295.28C674.41 290.032 671.338 282.672 671.338 273.2ZM690.922 273.2C690.922 281.392 692.234 287.728 694.858 292.208C697.482 296.624 701.29 298.832 706.282 298.832C711.274 298.832 715.082 296.624 717.706 292.208C720.33 287.728 721.642 281.424 721.642 273.296C721.642 262.224 719.338 254.672 714.73 250.64C712.426 248.592 709.61 247.568 706.282 247.568C701.29 247.568 697.482 249.808 694.858 254.288C692.234 258.704 690.922 265.008 690.922 273.2ZM784.217 303.056C772.889 303.056 763.993 300.464 757.529 295.28C751.065 290.096 747.833 282.768 747.833 273.296C747.833 263.76 751.033 256.368 757.433 251.12C763.833 245.872 772.825 243.248 784.409 243.248C792.537 243.248 799.513 244.4 805.337 246.704L804.089 263.024H803.417C801.753 257.392 799.481 253.424 796.601 251.12C793.785 248.752 790.265 247.568 786.041 247.568C779.705 247.568 775.001 249.84 771.929 254.384C768.921 258.864 767.417 265.008 767.417 272.816C767.417 280.624 768.889 286.832 771.833 291.44C774.777 296.176 778.969 298.64 784.409 298.832C788.889 298.832 792.281 298.16 794.585 296.816C797.081 295.408 798.969 293.232 800.249 290.288C801.465 287.472 802.649 283.376 803.801 278H804.473L806.969 293.36C803.129 299.888 795.545 303.12 784.217 303.056ZM841.91 301.04H842.87V302H811.958V301.04H812.918C814.326 301.04 815.51 300.56 816.47 299.6C817.43 298.64 817.942 297.456 818.006 296.048V250.256C817.942 248.848 817.398 247.664 816.374 246.704C815.414 245.744 814.262 245.264 812.918 245.264H811.862V244.304H842.87V245.264H841.91C840.502 245.264 839.286 245.744 838.262 246.704C837.302 247.664 836.822 248.88 836.822 250.352V296.048C836.822 297.456 837.302 298.64 838.262 299.6C839.286 300.56 840.502 301.04 841.91 301.04ZM870.71 302H869.654C859.734 302 852.694 299.12 848.534 293.36C846.742 290.928 844.726 287.504 842.486 283.088C840.31 278.608 839.222 276.336 839.222 276.272L858.326 249.008C859.03 248.048 859.158 247.184 858.71 246.416C858.326 245.584 857.59 245.168 856.502 245.168H855.734V244.4H875.318V245.168H874.934C871.606 245.168 868.822 246.352 866.582 248.72L853.718 264.848L871.862 294.512C874.55 298.864 877.462 301.104 880.598 301.232V302H870.71ZM879.454 302V301.04H880.51C881.854 301.04 882.878 300.688 883.582 299.984C884.862 298.768 885.502 297.456 885.502 296.048V250.448C885.502 248.976 884.99 247.76 883.966 246.8C883.006 245.84 881.854 245.36 880.51 245.36H879.454V244.4H916.894C918.494 244.4 920.286 244.24 922.27 243.92C924.254 243.6 925.63 243.28 926.398 242.96V261.104H925.438V260.624C925.438 256.912 924.446 254.032 922.462 251.984C920.542 249.936 917.79 248.88 914.206 248.816H904.318V271.376H911.71C914.526 271.312 916.798 270.384 918.526 268.592C920.318 266.736 921.214 264.368 921.214 261.488V261.296H922.174V286.064H921.214V285.68C921.214 282.864 920.318 280.528 918.526 278.672C916.798 276.816 914.526 275.888 911.71 275.888H904.318V297.584H913.534C917.374 297.584 920.862 296.176 923.998 293.36C927.134 290.544 929.278 286.704 930.43 281.84H931.294L928.606 302H879.454ZM990.64 260.24C990.64 263.568 989.84 266.64 988.24 269.456C986.384 272.72 983.088 274.768 978.352 275.6C980.592 276.176 982.64 277.328 984.496 279.056C986.416 280.72 987.664 282.096 988.24 283.184C988.88 284.272 989.52 285.488 990.16 286.832C993.936 294.192 996.912 298.576 999.088 299.984C1000.24 300.688 1001.68 301.04 1003.41 301.04V302H992.08C985.744 302 981.616 301.584 979.696 300.752C977.072 299.6 975.152 298.32 973.936 296.912C972.784 295.44 971.664 293.744 970.576 291.824C968.848 288.88 967.44 284.688 966.352 279.248C965.712 276.368 964.656 274.544 963.184 273.776V273.008H963.664C965.456 273.008 967.024 272.208 968.368 270.608C969.712 268.944 970.576 266.256 970.96 262.544C970.96 262.48 970.96 262.288 970.96 261.968C971.28 259.088 971.024 256.72 970.192 254.864C969.36 252.944 968.624 251.664 967.984 251.024C967.344 250.384 966.512 249.904 965.488 249.584C964.4 249.2 963.408 249.008 962.512 249.008H960.592V296.048C960.592 297.648 961.104 298.896 962.128 299.792C963.216 300.624 964.4 301.04 965.68 301.04H966.544V302H935.728V301.04H936.784C938.128 301.04 939.28 300.56 940.24 299.6C941.2 298.64 941.68 297.456 941.68 296.048V250.352C941.68 248.944 941.2 247.76 940.24 246.8C939.344 245.84 938.224 245.36 936.88 245.36H935.728V244.4H968.752C983.344 244.4 990.64 249.68 990.64 260.24Z" fill="#DC3545"/>
<line x1="-5" y1="333.5" x2="1195" y2="333.5" stroke="white"/>
<path d="M166.602 396H165.336V370.641H166.602V396ZM164.68 362.719C164.68 362.359 164.805 362.055 165.055 361.805C165.305 361.539 165.609 361.406 165.969 361.406C166.328 361.406 166.633 361.539 166.883 361.805C167.148 362.055 167.281 362.359 167.281 362.719C167.281 363.078 167.148 363.383 166.883 363.633C166.633 363.883 166.328 364.008 165.969 364.008C165.609 364.008 165.305 363.883 165.055 363.633C164.805 363.383 164.68 363.078 164.68 362.719ZM176.188 376.547C177.016 374.578 178.234 373.023 179.844 371.883C181.453 370.742 183.234 370.172 185.188 370.172C187.906 370.172 189.922 370.945 191.234 372.492C192.562 374.023 193.234 376.344 193.25 379.453V396H191.984V379.406C191.969 376.688 191.414 374.68 190.32 373.383C189.227 372.07 187.492 371.414 185.117 371.414C182.93 371.414 181.031 372.195 179.422 373.758C177.828 375.305 176.75 377.305 176.188 379.758V396H174.922V370.641H176.188V376.547ZM204.055 363.797V370.641H209.82V371.93H204.055V389.93C204.055 391.727 204.344 393.055 204.922 393.914C205.516 394.773 206.5 395.203 207.875 395.203C208.562 395.203 209.398 395.133 210.383 394.992L210.594 396.188C210.078 396.375 209.195 396.469 207.945 396.469C206.102 396.469 204.781 395.961 203.984 394.945C203.188 393.914 202.781 392.297 202.766 390.094V371.93H198.078V370.641H202.766V363.797H204.055ZM225.523 396.469C223.477 396.469 221.594 395.922 219.875 394.828C218.172 393.719 216.836 392.203 215.867 390.281C214.898 388.359 214.414 386.227 214.414 383.883V382.828C214.414 380.484 214.883 378.336 215.82 376.383C216.758 374.43 218.047 372.906 219.688 371.812C221.328 370.719 223.117 370.172 225.055 370.172C227.883 370.172 230.195 371.18 231.992 373.195C233.789 375.211 234.688 377.859 234.688 381.141V382.477H215.68V383.859C215.68 385.922 216.109 387.836 216.969 389.602C217.844 391.352 219.039 392.727 220.555 393.727C222.086 394.727 223.742 395.227 225.523 395.227C227.227 395.227 228.672 394.945 229.859 394.383C231.062 393.805 232.125 392.922 233.047 391.734L233.938 392.367C232.047 395.102 229.242 396.469 225.523 396.469ZM225.055 371.438C222.586 371.438 220.492 372.359 218.773 374.203C217.055 376.031 216.047 378.367 215.75 381.211H233.422V380.906C233.422 379.188 233.055 377.594 232.32 376.125C231.602 374.641 230.602 373.492 229.32 372.68C228.055 371.852 226.633 371.438 225.055 371.438ZM251.773 371.555L250.133 371.414C247.977 371.414 246.172 372.117 244.719 373.523C243.266 374.914 242.312 376.867 241.859 379.383V396H240.594V370.641H241.859V375.914C242.547 374.148 243.578 372.75 244.953 371.719C246.328 370.688 248.055 370.172 250.133 370.172C250.867 370.172 251.461 370.258 251.914 370.43L251.773 371.555ZM264.547 393.984L273.664 370.641H275.023L265.156 396H263.914L254.07 370.641H255.43L264.547 393.984ZM281.586 396H280.32V370.641H281.586V396ZM279.664 362.719C279.664 362.359 279.789 362.055 280.039 361.805C280.289 361.539 280.594 361.406 280.953 361.406C281.312 361.406 281.617 361.539 281.867 361.805C282.133 362.055 282.266 362.359 282.266 362.719C282.266 363.078 282.133 363.383 281.867 363.633C281.617 363.883 281.312 364.008 280.953 364.008C280.594 364.008 280.289 363.883 280.039 363.633C279.789 363.383 279.664 363.078 279.664 362.719ZM299.023 396.469C296.977 396.469 295.094 395.922 293.375 394.828C291.672 393.719 290.336 392.203 289.367 390.281C288.398 388.359 287.914 386.227 287.914 383.883V382.828C287.914 380.484 288.383 378.336 289.32 376.383C290.258 374.43 291.547 372.906 293.188 371.812C294.828 370.719 296.617 370.172 298.555 370.172C301.383 370.172 303.695 371.18 305.492 373.195C307.289 375.211 308.188 377.859 308.188 381.141V382.477H289.18V383.859C289.18 385.922 289.609 387.836 290.469 389.602C291.344 391.352 292.539 392.727 294.055 393.727C295.586 394.727 297.242 395.227 299.023 395.227C300.727 395.227 302.172 394.945 303.359 394.383C304.562 393.805 305.625 392.922 306.547 391.734L307.438 392.367C305.547 395.102 302.742 396.469 299.023 396.469ZM298.555 371.438C296.086 371.438 293.992 372.359 292.273 374.203C290.555 376.031 289.547 378.367 289.25 381.211H306.922V380.906C306.922 379.188 306.555 377.594 305.82 376.125C305.102 374.641 304.102 373.492 302.82 372.68C301.555 371.852 300.133 371.438 298.555 371.438ZM318.641 388.664L320.023 394.125L327.453 370.641H328.742L336.125 394.125L337.555 388.664L342.711 370.641H344.188L336.805 396H335.539L329.281 376.945L328.086 372.398L326.797 376.945L320.633 396H319.367L312.008 370.641H313.461L318.641 388.664ZM366.055 389.789C366.055 386.711 363.43 384.617 358.18 383.508C355.023 382.836 352.828 381.977 351.594 380.93C350.359 379.867 349.742 378.414 349.742 376.57C349.742 374.711 350.523 373.18 352.086 371.977C353.664 370.773 355.711 370.172 358.227 370.172C360.961 370.172 363.156 370.828 364.812 372.141C366.469 373.438 367.297 375.195 367.297 377.414H366.008C366.008 375.711 365.289 374.289 363.852 373.148C362.414 372.008 360.539 371.438 358.227 371.438C356.008 371.438 354.25 371.922 352.953 372.891C351.656 373.859 351.008 375.07 351.008 376.523C351.008 377.664 351.25 378.562 351.734 379.219C352.219 379.859 353.008 380.445 354.102 380.977C355.195 381.492 356.789 381.992 358.883 382.477C360.977 382.961 362.633 383.531 363.852 384.188C365.07 384.844 365.953 385.625 366.5 386.531C367.047 387.422 367.32 388.516 367.32 389.812C367.32 391.812 366.5 393.422 364.859 394.641C363.219 395.859 361.07 396.469 358.414 396.469C355.57 396.469 353.273 395.828 351.523 394.547C349.789 393.25 348.922 391.586 348.922 389.555H350.188C350.312 391.336 351.094 392.727 352.531 393.727C353.984 394.711 355.945 395.203 358.414 395.203C360.68 395.203 362.516 394.68 363.922 393.633C365.344 392.57 366.055 391.289 366.055 389.789ZM387.734 396V371.93H383.328V370.641H387.734V366.938C387.75 364.594 388.336 362.773 389.492 361.477C390.664 360.164 392.289 359.508 394.367 359.508C395.523 359.508 396.523 359.641 397.367 359.906L397.18 361.125C396.367 360.891 395.438 360.773 394.391 360.773C392.719 360.773 391.398 361.32 390.43 362.414C389.477 363.492 389 365.031 389 367.031V370.641H395.703V371.93H389V396H387.734ZM417.945 396V391.898C417.195 393.305 416.102 394.422 414.664 395.25C413.227 396.062 411.406 396.469 409.203 396.469C406.438 396.469 404.359 395.664 402.969 394.055C401.594 392.43 400.891 390.07 400.859 386.977V370.641H402.125V387.023C402.156 389.711 402.766 391.75 403.953 393.141C405.141 394.516 406.875 395.203 409.156 395.203C411.578 395.203 413.547 394.633 415.062 393.492C416.578 392.352 417.539 390.68 417.945 388.477V370.641H419.234V396H417.945ZM430.086 363.797V370.641H435.852V371.93H430.086V389.93C430.086 391.727 430.375 393.055 430.953 393.914C431.547 394.773 432.531 395.203 433.906 395.203C434.594 395.203 435.43 395.133 436.414 394.992L436.625 396.188C436.109 396.375 435.227 396.469 433.977 396.469C432.133 396.469 430.812 395.961 430.016 394.945C429.219 393.914 428.812 392.297 428.797 390.094V371.93H424.109V370.641H428.797V363.797H430.086ZM459.43 396V391.898C458.68 393.305 457.586 394.422 456.148 395.25C454.711 396.062 452.891 396.469 450.688 396.469C447.922 396.469 445.844 395.664 444.453 394.055C443.078 392.43 442.375 390.07 442.344 386.977V370.641H443.609V387.023C443.641 389.711 444.25 391.75 445.438 393.141C446.625 394.516 448.359 395.203 450.641 395.203C453.062 395.203 455.031 394.633 456.547 393.492C458.062 392.352 459.023 390.68 459.43 388.477V370.641H460.719V396H459.43ZM479.914 371.555L478.273 371.414C476.117 371.414 474.312 372.117 472.859 373.523C471.406 374.914 470.453 376.867 470 379.383V396H468.734V370.641H470V375.914C470.688 374.148 471.719 372.75 473.094 371.719C474.469 370.688 476.195 370.172 478.273 370.172C479.008 370.172 479.602 370.258 480.055 370.43L479.914 371.555ZM493.461 396.469C491.414 396.469 489.531 395.922 487.812 394.828C486.109 393.719 484.773 392.203 483.805 390.281C482.836 388.359 482.352 386.227 482.352 383.883V382.828C482.352 380.484 482.82 378.336 483.758 376.383C484.695 374.43 485.984 372.906 487.625 371.812C489.266 370.719 491.055 370.172 492.992 370.172C495.82 370.172 498.133 371.18 499.93 373.195C501.727 375.211 502.625 377.859 502.625 381.141V382.477H483.617V383.859C483.617 385.922 484.047 387.836 484.906 389.602C485.781 391.352 486.977 392.727 488.492 393.727C490.023 394.727 491.68 395.227 493.461 395.227C495.164 395.227 496.609 394.945 497.797 394.383C499 393.805 500.062 392.922 500.984 391.734L501.875 392.367C499.984 395.102 497.18 396.469 493.461 396.469ZM492.992 371.438C490.523 371.438 488.43 372.359 486.711 374.203C484.992 376.031 483.984 378.367 483.688 381.211H501.359V380.906C501.359 379.188 500.992 377.594 500.258 376.125C499.539 374.641 498.539 373.492 497.258 372.68C495.992 371.852 494.57 371.438 492.992 371.438ZM535.648 389.789C535.648 386.711 533.023 384.617 527.773 383.508C524.617 382.836 522.422 381.977 521.188 380.93C519.953 379.867 519.336 378.414 519.336 376.57C519.336 374.711 520.117 373.18 521.68 371.977C523.258 370.773 525.305 370.172 527.82 370.172C530.555 370.172 532.75 370.828 534.406 372.141C536.062 373.438 536.891 375.195 536.891 377.414H535.602C535.602 375.711 534.883 374.289 533.445 373.148C532.008 372.008 530.133 371.438 527.82 371.438C525.602 371.438 523.844 371.922 522.547 372.891C521.25 373.859 520.602 375.07 520.602 376.523C520.602 377.664 520.844 378.562 521.328 379.219C521.812 379.859 522.602 380.445 523.695 380.977C524.789 381.492 526.383 381.992 528.477 382.477C530.57 382.961 532.227 383.531 533.445 384.188C534.664 384.844 535.547 385.625 536.094 386.531C536.641 387.422 536.914 388.516 536.914 389.812C536.914 391.812 536.094 393.422 534.453 394.641C532.812 395.859 530.664 396.469 528.008 396.469C525.164 396.469 522.867 395.828 521.117 394.547C519.383 393.25 518.516 391.586 518.516 389.555H519.781C519.906 391.336 520.688 392.727 522.125 393.727C523.578 394.711 525.539 395.203 528.008 395.203C530.273 395.203 532.109 394.68 533.516 393.633C534.938 392.57 535.648 391.289 535.648 389.789ZM553.039 396.469C550.992 396.469 549.109 395.922 547.391 394.828C545.688 393.719 544.352 392.203 543.383 390.281C542.414 388.359 541.93 386.227 541.93 383.883V382.828C541.93 380.484 542.398 378.336 543.336 376.383C544.273 374.43 545.562 372.906 547.203 371.812C548.844 370.719 550.633 370.172 552.57 370.172C555.398 370.172 557.711 371.18 559.508 373.195C561.305 375.211 562.203 377.859 562.203 381.141V382.477H543.195V383.859C543.195 385.922 543.625 387.836 544.484 389.602C545.359 391.352 546.555 392.727 548.07 393.727C549.602 394.727 551.258 395.227 553.039 395.227C554.742 395.227 556.188 394.945 557.375 394.383C558.578 393.805 559.641 392.922 560.562 391.734L561.453 392.367C559.562 395.102 556.758 396.469 553.039 396.469ZM552.57 371.438C550.102 371.438 548.008 372.359 546.289 374.203C544.57 376.031 543.562 378.367 543.266 381.211H560.938V380.906C560.938 379.188 560.57 377.594 559.836 376.125C559.117 374.641 558.117 373.492 556.836 372.68C555.57 371.852 554.148 371.438 552.57 371.438ZM569.375 376.547C570.203 374.578 571.422 373.023 573.031 371.883C574.641 370.742 576.422 370.172 578.375 370.172C581.094 370.172 583.109 370.945 584.422 372.492C585.75 374.023 586.422 376.344 586.438 379.453V396H585.172V379.406C585.156 376.688 584.602 374.68 583.508 373.383C582.414 372.07 580.68 371.414 578.305 371.414C576.117 371.414 574.219 372.195 572.609 373.758C571.016 375.305 569.938 377.305 569.375 379.758V396H568.109V370.641H569.375V376.547ZM610.039 389.789C610.039 386.711 607.414 384.617 602.164 383.508C599.008 382.836 596.812 381.977 595.578 380.93C594.344 379.867 593.727 378.414 593.727 376.57C593.727 374.711 594.508 373.18 596.07 371.977C597.648 370.773 599.695 370.172 602.211 370.172C604.945 370.172 607.141 370.828 608.797 372.141C610.453 373.438 611.281 375.195 611.281 377.414H609.992C609.992 375.711 609.273 374.289 607.836 373.148C606.398 372.008 604.523 371.438 602.211 371.438C599.992 371.438 598.234 371.922 596.938 372.891C595.641 373.859 594.992 375.07 594.992 376.523C594.992 377.664 595.234 378.562 595.719 379.219C596.203 379.859 596.992 380.445 598.086 380.977C599.18 381.492 600.773 381.992 602.867 382.477C604.961 382.961 606.617 383.531 607.836 384.188C609.055 384.844 609.938 385.625 610.484 386.531C611.031 387.422 611.305 388.516 611.305 389.812C611.305 391.812 610.484 393.422 608.844 394.641C607.203 395.859 605.055 396.469 602.398 396.469C599.555 396.469 597.258 395.828 595.508 394.547C593.773 393.25 592.906 391.586 592.906 389.555H594.172C594.297 391.336 595.078 392.727 596.516 393.727C597.969 394.711 599.93 395.203 602.398 395.203C604.664 395.203 606.5 394.68 607.906 393.633C609.328 392.57 610.039 391.289 610.039 389.789ZM634.695 396C634.383 394.922 634.227 393.375 634.227 391.359C633.227 392.984 631.859 394.242 630.125 395.133C628.391 396.023 626.43 396.469 624.242 396.469C621.898 396.469 620.008 395.836 618.57 394.57C617.148 393.289 616.438 391.625 616.438 389.578C616.438 387.25 617.484 385.391 619.578 384C621.688 382.594 624.484 381.875 627.969 381.844H634.227V378.141C634.227 376.016 633.555 374.367 632.211 373.195C630.883 372.023 628.977 371.438 626.492 371.438C624.18 371.438 622.25 372.031 620.703 373.219C619.156 374.406 618.383 375.875 618.383 377.625L617.117 377.578C617.117 375.516 618.023 373.766 619.836 372.328C621.648 370.891 623.867 370.172 626.492 370.172C629.227 370.172 631.398 370.859 633.008 372.234C634.617 373.594 635.445 375.516 635.492 378V390.117C635.492 392.898 635.711 394.789 636.148 395.789V396H634.695ZM624.242 395.227C626.617 395.227 628.656 394.695 630.359 393.633C632.078 392.57 633.367 391.078 634.227 389.156V383.133H628.367C624.742 383.133 621.969 383.852 620.047 385.289C618.484 386.461 617.703 387.922 617.703 389.672C617.703 391.219 618.32 392.531 619.555 393.609C620.789 394.688 622.352 395.227 624.242 395.227ZM646.508 363.797V370.641H652.273V371.93H646.508V389.93C646.508 391.727 646.797 393.055 647.375 393.914C647.969 394.773 648.953 395.203 650.328 395.203C651.016 395.203 651.852 395.133 652.836 394.992L653.047 396.188C652.531 396.375 651.648 396.469 650.398 396.469C648.555 396.469 647.234 395.961 646.438 394.945C645.641 393.914 645.234 392.297 645.219 390.094V371.93H640.531V370.641H645.219V363.797H646.508ZM660.43 396H659.164V370.641H660.43V396ZM658.508 362.719C658.508 362.359 658.633 362.055 658.883 361.805C659.133 361.539 659.438 361.406 659.797 361.406C660.156 361.406 660.461 361.539 660.711 361.805C660.977 362.055 661.109 362.359 661.109 362.719C661.109 363.078 660.977 363.383 660.711 363.633C660.461 363.883 660.156 364.008 659.797 364.008C659.438 364.008 659.133 363.883 658.883 363.633C658.633 363.383 658.508 363.078 658.508 362.719ZM666.828 382.828C666.828 380.406 667.289 378.234 668.211 376.312C669.148 374.375 670.461 372.867 672.148 371.789C673.852 370.711 675.773 370.172 677.914 370.172C680.039 370.172 681.945 370.695 683.633 371.742C685.32 372.789 686.633 374.273 687.57 376.195C688.523 378.117 689.008 380.281 689.023 382.688V383.812C689.023 386.25 688.562 388.43 687.641 390.352C686.719 392.273 685.406 393.773 683.703 394.852C682.016 395.93 680.102 396.469 677.961 396.469C675.82 396.469 673.898 395.938 672.195 394.875C670.508 393.812 669.195 392.328 668.258 390.422C667.32 388.5 666.844 386.344 666.828 383.953V382.828ZM668.094 383.812C668.094 385.922 668.508 387.859 669.336 389.625C670.18 391.375 671.344 392.742 672.828 393.727C674.328 394.711 676.039 395.203 677.961 395.203C680.852 395.203 683.203 394.117 685.016 391.945C686.844 389.773 687.758 386.977 687.758 383.555V382.828C687.758 380.75 687.336 378.828 686.492 377.062C685.648 375.297 684.477 373.922 682.977 372.938C681.492 371.938 679.805 371.438 677.914 371.438C675.023 371.438 672.664 372.539 670.836 374.742C669.008 376.945 668.094 379.719 668.094 383.062V383.812ZM696.453 376.547C697.281 374.578 698.5 373.023 700.109 371.883C701.719 370.742 703.5 370.172 705.453 370.172C708.172 370.172 710.188 370.945 711.5 372.492C712.828 374.023 713.5 376.344 713.516 379.453V396H712.25V379.406C712.234 376.688 711.68 374.68 710.586 373.383C709.492 372.07 707.758 371.414 705.383 371.414C703.195 371.414 701.297 372.195 699.688 373.758C698.094 375.305 697.016 377.305 696.453 379.758V396H695.188V370.641H696.453V376.547ZM737.117 389.789C737.117 386.711 734.492 384.617 729.242 383.508C726.086 382.836 723.891 381.977 722.656 380.93C721.422 379.867 720.805 378.414 720.805 376.57C720.805 374.711 721.586 373.18 723.148 371.977C724.727 370.773 726.773 370.172 729.289 370.172C732.023 370.172 734.219 370.828 735.875 372.141C737.531 373.438 738.359 375.195 738.359 377.414H737.07C737.07 375.711 736.352 374.289 734.914 373.148C733.477 372.008 731.602 371.438 729.289 371.438C727.07 371.438 725.312 371.922 724.016 372.891C722.719 373.859 722.07 375.07 722.07 376.523C722.07 377.664 722.312 378.562 722.797 379.219C723.281 379.859 724.07 380.445 725.164 380.977C726.258 381.492 727.852 381.992 729.945 382.477C732.039 382.961 733.695 383.531 734.914 384.188C736.133 384.844 737.016 385.625 737.562 386.531C738.109 387.422 738.383 388.516 738.383 389.812C738.383 391.812 737.562 393.422 735.922 394.641C734.281 395.859 732.133 396.469 729.477 396.469C726.633 396.469 724.336 395.828 722.586 394.547C720.852 393.25 719.984 391.586 719.984 389.555H721.25C721.375 391.336 722.156 392.727 723.594 393.727C725.047 394.711 727.008 395.203 729.477 395.203C731.742 395.203 733.578 394.68 734.984 393.633C736.406 392.57 737.117 391.289 737.117 389.789ZM758.445 396H757.18V370.641H758.445V396ZM756.523 362.719C756.523 362.359 756.648 362.055 756.898 361.805C757.148 361.539 757.453 361.406 757.812 361.406C758.172 361.406 758.477 361.539 758.727 361.805C758.992 362.055 759.125 362.359 759.125 362.719C759.125 363.078 758.992 363.383 758.727 363.633C758.477 363.883 758.172 364.008 757.812 364.008C757.453 364.008 757.148 363.883 756.898 363.633C756.648 363.383 756.523 363.078 756.523 362.719ZM768.031 376.547C768.859 374.578 770.078 373.023 771.688 371.883C773.297 370.742 775.078 370.172 777.031 370.172C779.75 370.172 781.766 370.945 783.078 372.492C784.406 374.023 785.078 376.344 785.094 379.453V396H783.828V379.406C783.812 376.688 783.258 374.68 782.164 373.383C781.07 372.07 779.336 371.414 776.961 371.414C774.773 371.414 772.875 372.195 771.266 373.758C769.672 375.305 768.594 377.305 768.031 379.758V396H766.766V370.641H768.031V376.547ZM815.727 371.555L814.086 371.414C811.93 371.414 810.125 372.117 808.672 373.523C807.219 374.914 806.266 376.867 805.812 379.383V396H804.547V370.641H805.812V375.914C806.5 374.148 807.531 372.75 808.906 371.719C810.281 370.688 812.008 370.172 814.086 370.172C814.82 370.172 815.414 370.258 815.867 370.43L815.727 371.555ZM818.234 382.828C818.234 380.406 818.695 378.234 819.617 376.312C820.555 374.375 821.867 372.867 823.555 371.789C825.258 370.711 827.18 370.172 829.32 370.172C831.445 370.172 833.352 370.695 835.039 371.742C836.727 372.789 838.039 374.273 838.977 376.195C839.93 378.117 840.414 380.281 840.43 382.688V383.812C840.43 386.25 839.969 388.43 839.047 390.352C838.125 392.273 836.812 393.773 835.109 394.852C833.422 395.93 831.508 396.469 829.367 396.469C827.227 396.469 825.305 395.938 823.602 394.875C821.914 393.812 820.602 392.328 819.664 390.422C818.727 388.5 818.25 386.344 818.234 383.953V382.828ZM819.5 383.812C819.5 385.922 819.914 387.859 820.742 389.625C821.586 391.375 822.75 392.742 824.234 393.727C825.734 394.711 827.445 395.203 829.367 395.203C832.258 395.203 834.609 394.117 836.422 391.945C838.25 389.773 839.164 386.977 839.164 383.555V382.828C839.164 380.75 838.742 378.828 837.898 377.062C837.055 375.297 835.883 373.922 834.383 372.938C832.898 371.938 831.211 371.438 829.32 371.438C826.43 371.438 824.07 372.539 822.242 374.742C820.414 376.945 819.5 379.719 819.5 383.062V383.812ZM855.195 395.203C857.492 395.203 859.383 394.594 860.867 393.375C862.367 392.156 863.188 390.469 863.328 388.312H864.594C864.469 390.766 863.523 392.742 861.758 394.242C859.992 395.727 857.805 396.469 855.195 396.469C852.023 396.469 849.5 395.32 847.625 393.023C845.766 390.727 844.836 387.609 844.836 383.672V382.828C844.836 378.984 845.766 375.914 847.625 373.617C849.5 371.32 852.008 370.172 855.148 370.172C857.836 370.172 860.055 370.977 861.805 372.586C863.555 374.195 864.484 376.336 864.594 379.008H863.328C863.219 376.727 862.414 374.898 860.914 373.523C859.43 372.133 857.508 371.438 855.148 371.438C852.32 371.438 850.102 372.461 848.492 374.508C846.898 376.539 846.102 379.367 846.102 382.992V383.812C846.102 387.359 846.906 390.148 848.516 392.18C850.141 394.195 852.367 395.203 855.195 395.203ZM875.961 382.289L875.914 382.336L872.234 385.5V396H870.969V360H872.234V384.117L875.211 381.305L886.742 370.641H888.547L876.898 381.445L889.273 396H887.633L875.961 382.289ZM923.328 396H922.062V378.961C922.047 376.414 921.484 374.523 920.375 373.289C919.281 372.039 917.531 371.414 915.125 371.414C912.344 371.414 910.07 372.641 908.305 375.094C907.258 376.562 906.562 378.188 906.219 379.969V396H904.93V370.641H906.219V376.641C907.078 374.578 908.305 372.984 909.898 371.859C911.492 370.734 913.258 370.172 915.195 370.172C917.32 370.172 919.055 370.641 920.398 371.578C921.758 372.516 922.648 374.047 923.07 376.172C923.82 374.344 925.039 372.891 926.727 371.812C928.414 370.719 930.305 370.172 932.398 370.172C935.133 370.172 937.164 370.945 938.492 372.492C939.836 374.039 940.516 376.359 940.531 379.453V396H939.266V379.547C939.266 376.766 938.703 374.711 937.578 373.383C936.469 372.039 934.719 371.383 932.328 371.414C929.25 371.461 926.812 372.688 925.016 375.094C923.984 376.484 923.422 377.828 923.328 379.125V396ZM965.211 396V391.898C964.461 393.305 963.367 394.422 961.93 395.25C960.492 396.062 958.672 396.469 956.469 396.469C953.703 396.469 951.625 395.664 950.234 394.055C948.859 392.43 948.156 390.07 948.125 386.977V370.641H949.391V387.023C949.422 389.711 950.031 391.75 951.219 393.141C952.406 394.516 954.141 395.203 956.422 395.203C958.844 395.203 960.812 394.633 962.328 393.492C963.844 392.352 964.805 390.68 965.211 388.477V370.641H966.5V396H965.211ZM990.148 389.789C990.148 386.711 987.523 384.617 982.273 383.508C979.117 382.836 976.922 381.977 975.688 380.93C974.453 379.867 973.836 378.414 973.836 376.57C973.836 374.711 974.617 373.18 976.18 371.977C977.758 370.773 979.805 370.172 982.32 370.172C985.055 370.172 987.25 370.828 988.906 372.141C990.562 373.438 991.391 375.195 991.391 377.414H990.102C990.102 375.711 989.383 374.289 987.945 373.148C986.508 372.008 984.633 371.438 982.32 371.438C980.102 371.438 978.344 371.922 977.047 372.891C975.75 373.859 975.102 375.07 975.102 376.523C975.102 377.664 975.344 378.562 975.828 379.219C976.312 379.859 977.102 380.445 978.195 380.977C979.289 381.492 980.883 381.992 982.977 382.477C985.07 382.961 986.727 383.531 987.945 384.188C989.164 384.844 990.047 385.625 990.594 386.531C991.141 387.422 991.414 388.516 991.414 389.812C991.414 391.812 990.594 393.422 988.953 394.641C987.312 395.859 985.164 396.469 982.508 396.469C979.664 396.469 977.367 395.828 975.617 394.547C973.883 393.25 973.016 391.586 973.016 389.555H974.281C974.406 391.336 975.188 392.727 976.625 393.727C978.078 394.711 980.039 395.203 982.508 395.203C984.773 395.203 986.609 394.68 988.016 393.633C989.438 392.57 990.148 391.289 990.148 389.789ZM999.992 396H998.727V370.641H999.992V396ZM998.07 362.719C998.07 362.359 998.195 362.055 998.445 361.805C998.695 361.539 999 361.406 999.359 361.406C999.719 361.406 1000.02 361.539 1000.27 361.805C1000.54 362.055 1000.67 362.359 1000.67 362.719C1000.67 363.078 1000.54 363.383 1000.27 363.633C1000.02 363.883 999.719 364.008 999.359 364.008C999 364.008 998.695 363.883 998.445 363.633C998.195 363.383 998.07 363.078 998.07 362.719ZM1016.91 395.203C1019.21 395.203 1021.1 394.594 1022.59 393.375C1024.09 392.156 1024.91 390.469 1025.05 388.312H1026.31C1026.19 390.766 1025.24 392.742 1023.48 394.242C1021.71 395.727 1019.52 396.469 1016.91 396.469C1013.74 396.469 1011.22 395.32 1009.34 393.023C1007.48 390.727 1006.55 387.609 1006.55 383.672V382.828C1006.55 378.984 1007.48 375.914 1009.34 373.617C1011.22 371.32 1013.73 370.172 1016.87 370.172C1019.55 370.172 1021.77 370.977 1023.52 372.586C1025.27 374.195 1026.2 376.336 1026.31 379.008H1025.05C1024.94 376.727 1024.13 374.898 1022.63 373.523C1021.15 372.133 1019.23 371.438 1016.87 371.438C1014.04 371.438 1011.82 372.461 1010.21 374.508C1008.62 376.539 1007.82 379.367 1007.82 382.992V383.812C1007.82 387.359 1008.62 390.148 1010.23 392.18C1011.86 394.195 1014.09 395.203 1016.91 395.203Z" fill="white"/>
</g>
<defs>
<clipPath id="clip0">
<rect width="1200" height="627" fill="white"/>
</clipPath>
</defs>
</svg>
