<svg width="96" height="96" viewBox="0 0 96 96" fill="none" xmlns="http://www.w3.org/2000/svg">
<path d="M48 96C74.5097 96 96 74.5097 96 48C96 21.4903 74.5097 0 48 0C21.4903 0 0 21.4903 0 48C0 74.5097 21.4903 96 48 96Z" fill="#B23C37"/>
<path d="M86.0533 40.6399C86.0177 40.4533 85.9733 40.1955 85.8666 39.9644V39.9555C85.751 39.6888 85.4844 39.4933 85.1733 39.4933C84.871 39.4933 84.6133 39.671 84.4888 39.9288C84.4799 39.9466 84.471 39.9733 84.4622 39.991C84.311 40.4266 84.2933 41.1466 84.1422 42.071C84.071 42.5599 83.4933 47.0133 81.9466 51.031C77.4222 63.3777 69.8755 65.3422 66.4622 64.8177C61.2977 64.1333 58.2666 60.5777 56.6577 56.1421C54.8088 51.6177 54.8799 47.9999 52.4177 44.5333C51.3688 43.1821 50.0444 42.3466 47.9555 42.3199C40.2666 42.3288 40.5066 55.7866 29.2266 55.3066C20.4266 54.5066 16.7111 44.5333 17.3155 35.5199C17.4222 31.6888 19.1288 25.3421 19.8844 23.5377V23.5288C19.9199 23.4399 19.9466 23.3421 19.9466 23.2355C19.9466 22.8177 19.6088 22.4799 19.1911 22.4799C18.9866 22.4799 18.7911 22.5599 18.6488 22.711C12.7911 29.5021 9.24438 38.3377 9.24438 47.9999C9.24438 69.4044 26.5955 86.7555 47.9999 86.7555C69.4044 86.7555 86.7555 69.4044 86.7555 47.9999C86.7555 45.4844 86.5066 43.0221 86.0533 40.6399Z" fill="#FFEEDF"/>
</svg>
