<svg width="192" height="192" viewBox="0 0 192 192" fill="none" xmlns="http://www.w3.org/2000/svg">
<path d="M96 192C149.019 192 192 149.019 192 96C192 42.9807 149.019 0 96 0C42.9807 0 0 42.9807 0 96C0 149.019 42.9807 192 96 192Z" fill="#B23C37"/>
<path d="M172.107 81.2798C172.036 80.9065 171.947 80.3909 171.733 79.9287V79.9109C171.502 79.3776 170.969 78.9864 170.347 78.9864C169.742 78.9864 169.227 79.342 168.978 79.8576C168.96 79.8931 168.942 79.9465 168.925 79.982C168.622 80.8531 168.587 82.2931 168.285 84.142C168.142 85.1198 166.987 94.0265 163.893 102.062C154.845 126.755 139.751 130.684 132.925 129.635C122.596 128.266 116.533 121.155 113.316 112.284C109.618 103.235 109.76 95.9998 104.836 89.0665C102.738 86.3642 100.089 84.6931 95.9112 84.6398C80.5335 84.6576 81.0135 111.573 58.4535 110.613C40.8535 109.013 33.4223 89.0665 34.6312 71.0398C34.8446 63.3776 38.2579 50.6842 39.769 47.0753V47.0576C39.8401 46.8798 39.8935 46.6842 39.8935 46.4709C39.8935 45.6353 39.2179 44.9598 38.3823 44.9598C37.9735 44.9598 37.5823 45.1198 37.2979 45.422C25.5823 59.0042 18.489 76.6753 18.489 95.9998C18.489 138.809 53.1912 173.511 96.0001 173.511C138.809 173.511 173.511 138.809 173.511 95.9998C173.511 90.9687 173.013 86.0442 172.107 81.2798Z" fill="#FFEEDF"/>
</svg>
