<svg width="72" height="72" viewBox="0 0 72 72" fill="none" xmlns="http://www.w3.org/2000/svg">
<path d="M36 72C55.8823 72 72 55.8823 72 36C72 16.1178 55.8823 0 36 0C16.1178 0 0 16.1178 0 36C0 55.8823 16.1178 72 36 72Z" fill="#B23C37"/>
<path d="M64.54 30.4799C64.5133 30.3399 64.48 30.1466 64.4 29.9733V29.9666C64.3133 29.7666 64.1133 29.6199 63.88 29.6199C63.6533 29.6199 63.46 29.7533 63.3667 29.9466C63.36 29.9599 63.3533 29.9799 63.3467 29.9933C63.2333 30.3199 63.22 30.8599 63.1067 31.5533C63.0533 31.9199 62.62 35.2599 61.46 38.2733C58.0667 47.5333 52.4067 49.0066 49.8467 48.6133C45.9733 48.0999 43.7 45.4333 42.4933 42.1066C41.1067 38.7133 41.16 35.9999 39.3133 33.3999C38.5267 32.3866 37.5333 31.7599 35.9667 31.7399C30.2 31.7466 30.38 41.8399 21.92 41.4799C15.32 40.8799 12.5333 33.3999 12.9867 26.6399C13.0667 23.7666 14.3467 19.0066 14.9133 17.6533V17.6466C14.94 17.5799 14.96 17.5066 14.96 17.4266C14.96 17.1133 14.7067 16.8599 14.3933 16.8599C14.24 16.8599 14.0933 16.9199 13.9867 17.0333C9.59335 22.1266 6.93335 28.7533 6.93335 35.9999C6.93335 52.0533 19.9467 65.0666 36 65.0666C52.0533 65.0666 65.0667 52.0533 65.0667 35.9999C65.0667 34.1133 64.88 32.2666 64.54 30.4799Z" fill="#FFEEDF"/>
</svg>
