<svg width="48" height="48" viewBox="0 0 48 48" fill="none" xmlns="http://www.w3.org/2000/svg">
<path d="M24 48C37.2548 48 48 37.2548 48 24C48 10.7452 37.2548 0 24 0C10.7452 0 0 10.7452 0 24C0 37.2548 10.7452 48 24 48Z" fill="#B23C37"/>
<path d="M43.0268 20.3199C43.009 20.2266 42.9868 20.0977 42.9334 19.9822V19.9777C42.8756 19.8444 42.7423 19.7466 42.5868 19.7466C42.4356 19.7466 42.3068 19.8355 42.2445 19.9644C42.2401 19.9733 42.2356 19.9866 42.2312 19.9955C42.1556 20.2133 42.1468 20.5733 42.0712 21.0355C42.0356 21.2799 41.7468 23.5066 40.9734 25.5155C38.7112 31.6888 34.9379 32.6711 33.2312 32.4088C30.649 32.0666 29.1334 30.2888 28.329 28.071C27.4045 25.8088 27.4401 23.9999 26.209 22.2666C25.6845 21.591 25.0223 21.1733 23.9779 21.1599C20.1334 21.1644 20.2534 27.8933 14.6134 27.6533C10.2134 27.2533 8.35565 22.2666 8.65787 17.7599C8.7112 15.8444 9.56454 12.671 9.94231 11.7688V11.7644C9.96009 11.7199 9.97342 11.671 9.97342 11.6177C9.97342 11.4088 9.80454 11.2399 9.59565 11.2399C9.49343 11.2399 9.39565 11.2799 9.32454 11.3555C6.39565 14.751 4.62231 19.1688 4.62231 23.9999C4.62231 34.7022 13.2979 43.3777 24.0001 43.3777C34.7023 43.3777 43.3779 34.7022 43.3779 23.9999C43.3779 22.7422 43.2534 21.511 43.0268 20.3199Z" fill="#FFEEDF"/>
</svg>
