<svg width="144" height="144" viewBox="0 0 144 144" fill="none" xmlns="http://www.w3.org/2000/svg">
<path d="M72 144C111.765 144 144 111.765 144 72C144 32.2355 111.765 0 72 0C32.2355 0 0 32.2355 0 72C0 111.765 32.2355 144 72 144Z" fill="#B23C37"/>
<path d="M129.08 60.9599C129.027 60.6799 128.96 60.2932 128.8 59.9465V59.9332C128.627 59.5332 128.227 59.2399 127.76 59.2399C127.307 59.2399 126.92 59.5065 126.733 59.8932C126.72 59.9199 126.707 59.9599 126.693 59.9865C126.467 60.6399 126.44 61.7199 126.213 63.1065C126.107 63.8399 125.24 70.5199 122.92 76.5465C116.133 95.0665 104.813 98.0132 99.6934 97.2265C91.9467 96.1999 87.4 90.8665 84.9867 84.2132C82.2134 77.4265 82.32 71.9999 78.6267 66.7999C77.0534 64.7732 75.0667 63.5199 71.9334 63.4799C60.4 63.4932 60.76 83.6799 43.84 82.9599C30.64 81.7599 25.0667 66.7999 25.9734 53.2799C26.1334 47.5332 28.6934 38.0132 29.8267 35.3065V35.2932C29.88 35.1599 29.92 35.0132 29.92 34.8532C29.92 34.2265 29.4134 33.7198 28.7867 33.7198C28.48 33.7198 28.1867 33.8398 27.9734 34.0665C19.1867 44.2532 13.8667 57.5065 13.8667 71.9999C13.8667 104.107 39.8934 130.133 72 130.133C104.107 130.133 130.133 104.107 130.133 71.9999C130.133 68.2265 129.76 64.5332 129.08 60.9599Z" fill="#FFEEDF"/>
</svg>
