<svg width="512" height="512" viewBox="0 0 512 512" fill="none" xmlns="http://www.w3.org/2000/svg">
<path d="M256 512C397.385 512 512 397.385 512 256C512 114.615 397.385 0 256 0C114.615 0 0 114.615 0 256C0 397.385 114.615 512 256 512Z" fill="#B23C37"/>
<path d="M458.951 216.746C458.762 215.751 458.525 214.376 457.956 213.143V213.096C457.34 211.674 455.917 210.631 454.258 210.631C452.646 210.631 451.271 211.579 450.608 212.954C450.56 213.048 450.513 213.191 450.465 213.285C449.66 215.608 449.565 219.448 448.759 224.379C448.379 226.986 445.298 250.737 437.049 272.165C412.919 338.014 372.67 348.491 354.465 345.694C326.922 342.044 310.756 323.081 302.175 299.425C292.314 275.294 292.694 255.999 279.562 237.511C273.968 230.305 266.904 225.848 255.763 225.706C214.756 225.754 216.036 297.528 155.876 294.968C108.942 290.702 89.1262 237.511 92.3499 189.439C92.9188 169.007 102.021 135.158 106.051 125.534V125.487C106.24 125.013 106.382 124.491 106.382 123.922C106.382 121.694 104.581 119.893 102.353 119.893C101.262 119.893 100.22 120.319 99.461 121.125C68.2195 157.345 49.304 204.468 49.304 255.999C49.304 370.157 141.843 462.696 256 462.696C370.157 462.696 462.697 370.157 462.697 255.999C462.697 242.583 461.369 229.451 458.951 216.746Z" fill="#FFEEDF"/>
</svg>
